<svg width="645" height="1311" viewBox="0 0 645 1311" fill="none" xmlns="http://www.w3.org/2000/svg">
<path fill-rule="evenodd" clip-rule="evenodd" d="M113.653 1307.5L642 1248.22V563.827L113.653 642.213C113.653 642.213 46.2125 594.439 3 563.827C3 831.098 3 1248.22 3 1248.22L113.653 1307.5Z" fill="#D9D9D9"/>
<path d="M113.653 642.213L642 563.827L566.522 488.077L540.673 491.551V534.028L113.653 594.749V550.439L3 563.827L113.653 642.213Z" fill="white"/>
<path d="M113.653 642.213L642 563.827M113.653 642.213C113.653 642.213 46.2125 594.439 3 563.827M113.653 642.213V1307.5M113.653 642.213L3 563.827M113.653 1307.5L642 1248.22V563.827M113.653 1307.5L3 1248.22C3 1248.22 3 831.098 3 563.827M642 563.827L566.522 488.077L540.673 491.551M3 563.827C46.2125 558.599 113.653 550.439 113.653 550.439M3 563.827L113.653 550.439M540.673 534.028C540.673 534.028 540.673 508.139 540.673 491.551M540.673 534.028L113.653 594.749V550.439M540.673 534.028V491.551M540.673 491.551C540.673 387.652 540.673 3 540.673 3C373.911 21.9063 280.414 32.5063 113.653 51.4126V550.439" stroke="black" stroke-width="5"/>
<path d="M150.292 976.503V679.1L606.825 605.326V912.939M150.292 976.503V1273.91L606.825 1220.55V912.939M150.292 976.503L227.236 965.79C346.681 818.802 411.498 809.476 523.286 924.57L606.825 912.939" stroke="white" stroke-width="10"/>
<path d="M151.025 976.174V679.1L608.291 605.326V913.268M151.025 976.174V1273.25L608.291 1221.21V913.268M151.025 976.174L227.969 965.589C347.624 813.962 411.562 811.416 521.088 925.265L608.291 913.268" stroke="#FF0000" stroke-width="3"/>
<path d="M19.1216 1238.34V607.96L90.203 660.656V1280.49L19.1216 1238.34Z" stroke="white" stroke-width="10"/>
<path d="M17.656 1239V609.278L92.4014 662.633V1280.49L17.656 1239Z" stroke="#FF0000" stroke-width="3"/>
</svg>
