<svg width="645" height="1061" viewBox="0 0 645 1061" fill="none" xmlns="http://www.w3.org/2000/svg">
<path fill-rule="evenodd" clip-rule="evenodd" d="M113.653 1057.99L642 998.704V314.314L113.653 392.7C113.653 392.7 46.2125 344.926 3 314.314C3 581.585 3 998.704 3 998.704L113.653 1057.99Z" fill="#D9D9D9"/>
<path d="M113.653 392.7L642 314.314L566.522 238.564L540.673 242.039V284.515L113.653 345.236V300.926L3 314.314L113.653 392.7Z" fill="white"/>
<path d="M113.653 392.7L642 314.314M113.653 392.7C113.653 392.7 46.2125 344.926 3 314.314M113.653 392.7V1057.99M113.653 392.7L3 314.314M113.653 1057.99L642 998.704V314.314M113.653 1057.99L3 998.704C3 998.704 3 581.585 3 314.314M642 314.314L566.522 238.564L540.673 242.039M3 314.314C46.2125 309.086 113.653 300.926 113.653 300.926M3 314.314L113.653 300.926M540.673 284.515C540.673 284.515 540.673 258.627 540.673 242.039M540.673 284.515L113.653 345.236V300.926M540.673 284.515V242.039M540.673 242.039C540.673 138.139 540.673 2.99988 540.673 2.99988C373.911 21.9062 280.414 32.5062 113.653 51.4125V300.926" stroke="black" stroke-width="5"/>
<path d="M150.292 726.99V429.587L606.826 355.813V663.426M150.292 726.99V1024.39L606.826 971.039V663.426M150.292 726.99L227.236 716.277C346.682 569.289 411.499 559.964 523.287 675.057L606.826 663.426" stroke="white" stroke-width="10"/>
<path d="M151.025 726.661V429.587L608.291 355.813V663.755M151.025 726.661V1023.73L608.291 971.698V663.755M151.025 726.661L227.969 716.076C347.624 564.449 411.562 561.903 521.088 675.752L608.291 663.755" stroke="#FF0000" stroke-width="3"/>
<path d="M19.1216 988.823V358.447L90.203 411.143V1030.98L19.1216 988.823Z" stroke="white" stroke-width="10"/>
<path d="M17.6562 989.482V359.765L92.4017 413.119V1030.98L17.6562 989.482Z" stroke="#FF0000" stroke-width="3"/>
</svg>
